<svg xmlns="http://www.w3.org/2000/svg" width="74" height="74" viewBox="0 0 74 74">
  <g id="Group_5" data-name="Group 5" transform="translate(-362.833 -231)">
    <circle id="Ellipse_3" data-name="Ellipse 3" cx="37" cy="37" r="37" transform="translate(362.833 231)" fill="#54d2ef"/>
    <path id="Path_9" data-name="Path 9" d="M363.981,277.174c4.639-3.011,8.519-6.956,8.519-11.74,0-3.678-3.061-7.278-7.286-10.5a37.115,37.115,0,0,0-1.233,22.239Z" fill="#27d838"/>
    <path id="Path_10" data-name="Path 10" d="M430.893,288.1c-3.684-1.942-8.483-3.162-12.153.508-2.7,2.7-3.268,7.707-2.962,12.79A37.158,37.158,0,0,0,430.893,288.1Z" fill="#27d838"/>
    <path id="Path_11" data-name="Path 11" d="M399.833,231a36.847,36.847,0,0,0-15.387,3.353c-.57,4.019-5.165,17.623,1.02,17.623,8.534,0,3.98,10.691,7.367,10.691,11.667,0,11-11.667,13.334-9.334,2.229,2.23.431,9.287-4.042,14.848-3.67,4.564-13.538,11.756-23.292,18.057a19.908,19.908,0,0,0-6.453,6.564A36.9,36.9,0,0,0,399.833,305a37.308,37.308,0,0,0,5.466-.4c-1.57-9.557-4.159-22.832.764-29.574,5.123-7.017,11.9,1.767,20.037-9.438,6-8.266,8.171-.576,10.727,2.651,0-.079.006-.156.006-.234A37,37,0,0,0,399.833,231Z" fill="#27d838"/>
  </g>
</svg>
