<svg xmlns="http://www.w3.org/2000/svg" width="74" height="74" viewBox="0 0 74 74">
  <g id="Group_4" data-name="Group 4" transform="translate(-464.583 -231)">
    <circle id="Ellipse_2" data-name="Ellipse 2" cx="37" cy="37" r="37" transform="translate(464.583 231)" fill="#f35d44"/>
    <g id="Group_3" data-name="Group 3">
      <path id="Path_4" data-name="Path 4" d="M532.75,260.681a12.475,12.475,0,0,0,3.383-5.923,37,37,0,0,0-68.177-2.189,11.1,11.1,0,0,0,8.544-.6c9.083-4.641,11.028-5.035,16.083-5.035,5.351,0,4.584,7.228,11.834,7.228a6.38,6.38,0,0,0,2.865-.808c2.084-.967,6.065-4.043,8.8-3.692,6.32.809,7.84,12.447,12.587,13.185C529.734,263.018,531.011,262.419,532.75,260.681Z" fill="#d34642"/>
      <path id="Path_5" data-name="Path 5" d="M468.13,283.816a37.006,37.006,0,0,0,68.094-2.8c-2.769-.124-7.657,1.321-9.974,1.321-3.333,0-7.753,11.111-14,4.864-1.37-1.369,10.552-6.362,2-11.515-4.625-2.786-9.917-1.248-13.375,1.526-6.343,5.088.708,9.438,2.042,9.965,7.6,3.005-12.753,8.259-21,.012C478.223,283.492,472.893,283.113,468.13,283.816Z" fill="#d34642"/>
      <path id="Path_6" data-name="Path 6" d="M481.963,268.05c.465,2.322-3.615,3.087-5.815,3.087s-3.231-1.209-3.231-3.577,2.964-4.7,4.864-3.585C478.786,264.562,481.771,267.086,481.963,268.05Z" fill="#d34642"/>
      <path id="Path_7" data-name="Path 7" d="M500.78,263.285a5.336,5.336,0,0,1-5.3,6.149c-3.108,0-4.563-1.707-4.563-5.052s4.186-6.63,6.87-5.063A6.881,6.881,0,0,1,500.78,263.285Z" fill="#d34642"/>
      <path id="Path_8" data-name="Path 8" d="M527.848,271.36a2.668,2.668,0,0,1-2.65,3.074c-1.554,0-2.281-.853-2.281-2.526s2.093-3.315,3.435-2.531A3.434,3.434,0,0,1,527.848,271.36Z" fill="#d34642"/>
    </g>
  </g>
</svg>
