<svg xmlns="http://www.w3.org/2000/svg" width="74" height="74" viewBox="0 0 74 74">
  <g id="Group_2" data-name="Group 2" transform="translate(-566.333 -231)">
    <circle id="Ellipse_1" data-name="Ellipse 1" cx="37" cy="37" r="37" transform="translate(566.333 231)" fill="#208de8"/>
    <g id="Group_1" data-name="Group 1" opacity="0.78">
      <path id="Path_1" data-name="Path 1" d="M627.6,240.081a15.241,15.241,0,0,0-1.526.528,15.057,15.057,0,0,0-1.51.662,13.683,13.683,0,0,0-1.449.744l-2.64,1.539a25.164,25.164,0,0,1-5.633,2.137,33.939,33.939,0,0,1-6.555.8,41.358,41.358,0,0,1-6.952-.432,48.8,48.8,0,0,1-6.922-1.44c-1.149-.285-2.217-.645-3.3-.969l-1.688-.593c-.579-.213-1.069-.374-1.728-.577a23.707,23.707,0,0,0-7.364-1.212,20.955,20.955,0,0,0-2.678.115,37.118,37.118,0,0,0-4.462,5.181c.47-.091.949-.178,1.443-.263a27.662,27.662,0,0,1,5.514-.207,20.256,20.256,0,0,1,5.839,1.273c.456.15,1.079.381,1.608.6l1.677.654c1.207.41,2.435.874,3.664,1.211a54.278,54.278,0,0,0,7.631,1.676,40.609,40.609,0,0,0,7.9.435,33.224,33.224,0,0,0,7.709-1.157,26.307,26.307,0,0,0,6.8-2.976l2.658-1.776c.2-.13.428-.306.607-.4l.537-.3a10.744,10.744,0,0,1,1.068-.584,12.521,12.521,0,0,1,3.3-1.134A37.173,37.173,0,0,0,627.6,240.081Z" fill="#1970b5"/>
      <path id="Path_2" data-name="Path 2" d="M639.606,260.681a12.886,12.886,0,0,1-1.324,1.4,14.977,14.977,0,0,1-4.348,2.691,21.819,21.819,0,0,1-2.846.979c-.446.135-1.119.286-1.588.394-.489.055-.97.145-1.476.193a22.139,22.139,0,0,1-6.808-.957c-2.438-.65-4.992-1.523-7.717-2.3a33.618,33.618,0,0,0-8.832-1.5,14.952,14.952,0,0,0-2.478.143l-1.316.2c-.4.078-.692.181-1.043.269l-.5.138-.252.069-.125.035-.063.017-.246.085c-.358.138-.734.27-1.072.416-.7.284-1.361.581-2,.876-2.562,1.19-4.9,2.31-7.223,3.176-1.154.437-2.312.8-3.425,1.122-.538.144-1.064.29-1.694.428l-.449.1a1.286,1.286,0,0,1-.17.037l-.208.036-.823.144a27.866,27.866,0,0,1-6.086.5,19,19,0,0,1-4.845-.746,13.309,13.309,0,0,1-3.281-1.407c-.388-.233-.715-.456-.99-.66-.019.48-.037.96-.037,1.445a37.229,37.229,0,0,0,.553,6.341,19.779,19.779,0,0,0,2.061.616,25.5,25.5,0,0,0,6.474.718,33.994,33.994,0,0,0,7.356-.915l.955-.213.24-.054.276-.073.444-.124c.569-.151,1.24-.36,1.912-.573,1.3-.431,2.578-.9,3.854-1.453,2.548-1.078,5.046-2.419,7.426-3.652.6-.305,1.183-.6,1.758-.863.292-.142.568-.249.853-.376l.807-.261c.319-.1.69-.239.968-.3l.754-.117a10.144,10.144,0,0,1,1.7-.166,29.077,29.077,0,0,1,7.618.99c2.6.616,5.216,1.385,7.875,1.973a25.889,25.889,0,0,0,8.151.731c.685-.089,1.368-.238,2.032-.362.661-.183,1.107-.3,1.738-.512a25.513,25.513,0,0,0,3.284-1.293,18.731,18.731,0,0,0,4.774-3.18A37,37,0,0,0,639.606,260.681Z" fill="#1970b5"/>
      <path id="Path_3" data-name="Path 3" d="M631.179,284.492c-1.842.637-3.87,1.428-5.951,2.089-.508.147-1.014.323-1.538.454l-1.6.35-1.662.211c-.56.065-1.135.066-1.707.1a44.128,44.128,0,0,1-7.177-.47c-2.469-.329-5.014-.728-7.585-1.136s-5.18-.756-7.757-1.054c-1.295-.134-2.6-.294-3.847-.385l-1.871-.157-1.993-.033a24.625,24.625,0,0,0-3.842.257c-.622.1-1.227.274-1.827.408l-.894.215c-.29.088-.57.206-.853.307l-1.664.613-1.539.762a10.837,10.837,0,0,0-1.43.831c-.449.3-.918.56-1.324.881-.538.422-1.051.832-1.54,1.248.527.713,1.085,1.4,1.661,2.074.455-.394.929-.784,1.446-1.159.363-.284.78-.5,1.177-.764a8.8,8.8,0,0,1,1.263-.717l1.348-.656c.476-.173.964-.338,1.459-.5.249-.077.494-.172.749-.237l.784-.147c.526-.091,1.05-.224,1.592-.287a19.476,19.476,0,0,1,3.344-.061l1.7.145,1.855.291c1.256.185,2.468.423,3.718.632l7.614,1.452c2.574.46,5.181.913,7.817,1.15a39.189,39.189,0,0,0,7.877-.018,29.43,29.43,0,0,0,7.255-1.755c2.144-.842,4.069-1.587,5.913-2.266q1.911-.714,3.592-1.31a37.052,37.052,0,0,0,1.73-3.57Z" fill="#1970b5"/>
    </g>
  </g>
</svg>
