<svg xmlns="http://www.w3.org/2000/svg" width="74" height="74" viewBox="0 0 74 74">
  <g id="Group_9" data-name="Group 9" transform="translate(-159.333 -231)">
    <circle id="Ellipse_8" data-name="Ellipse 8" cx="37" cy="37" r="37" transform="translate(159.333 231)" fill="#ed8e2f"/>
    <g id="Group_8" data-name="Group 8" opacity="0.7">
      <path id="Path_14" data-name="Path 14" d="M189.791,296.742l-1.818-8.9L187.625,286h-5.6l-1.049-5.958-.249-1.375-1.046-.044L172,278.01l5.154,3.6,1.208,6.894.285,1.5h5.591l1.055,8.562.131,1.118,1.035.693,7.111,4.493c.913.067,1.833.124,2.763.124a37.135,37.135,0,0,0,7.5-.757Z" fill="#aa4522"/>
      <path id="Path_15" data-name="Path 15" d="M160.268,276.247l3.4-8.066-4.111,3.854A36.941,36.941,0,0,0,160.268,276.247Z" fill="#aa4522"/>
      <g id="Group_7" data-name="Group 7">
        <path id="Path_16" data-name="Path 16" d="M214.3,288.152l-3.188-10.636-.54-1.8-1.741-.021-11.863-.146-4.851-8.625-.613-1.089-.907.01L176.667,266l12.219,3.472,4.382,9.689.629,1.391,1.6-.019,10.75.892,2.57,11.818,10.455,3.774a37.215,37.215,0,0,0,6.067-6.063Z" fill="#aa4522"/>
        <path id="Path_17" data-name="Path 17" d="M221.382,240.774l-1.407.25L208.5,236.057,200.25,240H189.6l-.378.489L184,248.25l6.657-3.958,10.374-.388,7.5-3.4,10.862,4.592.589-.03,5.156-.284A37.276,37.276,0,0,0,221.382,240.774Z" fill="#aa4522"/>
        <path id="Path_18" data-name="Path 18" d="M222.649,259.935,207,258.446l-12.561-8.3-19.77,6.687,19.166-3.058L206.217,265.2l12.8-.12,6.469,7.528,7.5.416a37.322,37.322,0,0,0,.348-5.023c0-.126-.008-.249-.009-.375l-4.74-1.792Z" fill="#aa4522"/>
        <path id="Path_19" data-name="Path 19" d="M228.743,250h-10.41l12.163,3.629A24.477,24.477,0,0,0,228.743,250Z" fill="#aa4522"/>
      </g>
    </g>
  </g>
</svg>
